HIERARCHY
ROOT SpineBase
{
  OFFSET 0.000000 0.000000 0.000000
  CHANNELS 6 Xposition Yposition Zposition Zrotation Xrotation Yrotation
  JOINT SpineMid
  {
    OFFSET 0.000000 28.716217 0.000000
    CHANNELS 3 Zrotation Xrotation Yrotation
    JOINT SpineShoulder
    {
      OFFSET -0.093312 21.343729 -0.626736
      CHANNELS 3 Zrotation Xrotation Yrotation
      JOINT Neck
      {
        OFFSET -0.024806 7.060144 -0.486469
        CHANNELS 3 Zrotation Xrotation Yrotation
        JOINT Head
        {
          OFFSET 1.296563 14.445705 -1.209090
          CHANNELS 3 Zrotation Xrotation Yrotation
          End Site
          {
            OFFSET 0 0 0
          }
        }
      }
      JOINT ShoulderLeft
      {
        OFFSET -14.435423 -1.365424 -7.511497
        CHANNELS 3 Zrotation Xrotation Yrotation
        JOINT ElbowLeft
        {
          OFFSET -4.793328 -27.192220 -1.569402
          CHANNELS 3 Zrotation Xrotation Yrotation
          JOINT WristLeft
          {
            OFFSET 1.173674 -20.159920 -5.094077
            CHANNELS 3 Zrotation Xrotation Yrotation
            JOINT HandLeft
            {
              OFFSET 0.875075 -2.801823 1.046246
              CHANNELS 3 Zrotation Xrotation Yrotation
              JOINT HandTipLeft
              {
                OFFSET -0.435185 -7.541514 -1.031876
                CHANNELS 3 Zrotation Xrotation Yrotation
                End Site
                {
                  OFFSET 0 0 0
                }
              }
              JOINT ThumbLeft
              {
                OFFSET -2.677368 0.160115 -2.484338
                CHANNELS 3 Zrotation Xrotation Yrotation
                End Site
                {
                  OFFSET 0 0 0
                }
              }
            }
          }
        }
      }
      JOINT ShoulderRight
      {
        OFFSET 14.965104 -3.160214 6.169305
        CHANNELS 3 Zrotation Xrotation Yrotation
        JOINT ElbowRight
        {
          OFFSET 1.849505 -26.860250 5.944284
          CHANNELS 3 Zrotation Xrotation Yrotation
          JOINT WristRight
          {
            OFFSET 1.276960 -24.794981 -5.680729
            CHANNELS 3 Zrotation Xrotation Yrotation
            JOINT HandRight
            {
              OFFSET -1.979251 -5.125567 -1.696023
              CHANNELS 3 Zrotation Xrotation Yrotation
              JOINT HandTipRight
              {
                OFFSET -1.000868 -7.464523 -2.452939
                CHANNELS 3 Zrotation Xrotation Yrotation
                End Site
                {
                  OFFSET 0 0 0
                }
              }
              JOINT ThumbRight
              {
                OFFSET 1.563809 1.247028 1.177492
                CHANNELS 3 Zrotation Xrotation Yrotation
                End Site
                {
                  OFFSET 0 0 0
                }
              }
            }
          }
        }
      }
    }
  }
  JOINT HipLeft
  {
    OFFSET -6.444911 0.711248 -5.944690
    CHANNELS 3 Zrotation Xrotation Yrotation
    JOINT KneeLeft
    {
      OFFSET -4.384987 -26.600350 3.367469
      CHANNELS 3 Zrotation Xrotation Yrotation
      JOINT AnkleLeft
      {
        OFFSET -3.185041 -31.378924 6.874576
        CHANNELS 3 Zrotation Xrotation Yrotation
        JOINT FootLeft
        {
          OFFSET 5.889273 -2.454053 -13.748996
          CHANNELS 3 Zrotation Xrotation Yrotation
          End Site
          {
            OFFSET 0 0 0
          }
        }
      }
    }
  }
  JOINT HipRight
  {
    OFFSET 7.231668 0.870037 -0.686284
    CHANNELS 3 Zrotation Xrotation Yrotation
    JOINT KneeRight
    {
      OFFSET 0.836537 -28.284557 3.728747
      CHANNELS 3 Zrotation Xrotation Yrotation
      JOINT AnkleRight
      {
        OFFSET 1.634122 -33.877020 4.147133
        CHANNELS 3 Zrotation Xrotation Yrotation
        JOINT FootRight
        {
          OFFSET 4.456063 -3.367843 -12.222602
          CHANNELS 3 Zrotation Xrotation Yrotation
          End Site
          {
            OFFSET 0 0 0
          }
        }
      }
    }
  }
}
MOTION
Frames: 6
Frame Time: 0.033333
-46.404410 68.203388 367.397321 -0.000000 0.000000 -21.030880 0.000000 0.000000 21.030880 -0.000000 0.000000 0.000000 -0.000000 0.000000 0.000000 0.000000 0.000000 0.000000 -0.000000 0.000000 0.000000 -0.000000 0.000000 0.000000 -0.000000 0.000000 0.000000 -0.000000 0.000000 0.000000 0.000000 0.000000 0.000000 0.000000 0.000000 0.000000 -0.000000 0.000000 0.000000 -0.000000 0.000000 0.000000 -0.000000 0.000000 0.000000 -0.000000 0.000000 0.000000 0.000000 0.000000 0.000000 0.000000 0.000000 0.000000 0.000000 0.000000 21.030880 -0.000000 0.000000 0.000000 -0.000000 0.000000 0.000000 0.000000 0.000000 0.000000 0.000000 0.000000 21.030880 -0.000000 0.000000 0.000000 -0.000000 0.000000 0.000000 0.000000 0.000000 0.000000
-46.399332 68.154229 367.479872 -0.043645 -0.067653 -20.558089 0.017109 0.078671 20.558052 -0.000000 0.000000 0.000000 -0.000000 0.000000 0.000000 0.000000 0.000000 0.000000 -0.000000 0.000000 0.000000 -0.000000 0.000000 0.000000 -0.926637 3.273333 0.712458 1.041634 -4.219485 -0.619069 0.000000 0.000000 0.000000 0.000000 0.000000 0.000000 -0.000000 0.000000 0.000000 -0.000000 0.000000 0.000000 1.150354 -1.531195 0.227915 0.418722 4.165503 -1.133309 0.000000 0.000000 0.000000 0.000000 0.000000 0.000000 0.017109 0.078671 20.558052 -0.000000 0.000000 0.000000 -1.981889 -3.967484 1.976541 0.000000 0.000000 0.000000 0.017109 0.078671 20.558052 -0.000000 0.000000 0.000000 -0.000000 0.000000 0.000000 0.000000 0.000000 0.000000
-46.396201 68.112362 367.550470 -0.077280 -0.119835 -20.200429 0.031147 0.139149 20.200310 -0.000000 0.000000 0.000000 -0.000000 0.000000 0.000000 0.000000 0.000000 0.000000 -0.000000 0.000000 0.000000 -0.000000 0.000000 0.000000 -1.392777 5.707810 1.363989 1.630352 -7.505687 -1.142254 0.000000 0.000000 0.000000 0.000000 0.000000 0.000000 -0.000000 0.000000 0.000000 -0.000000 0.000000 0.000000 2.200467 -2.758746 0.396379 0.735963 7.513539 -2.120461 0.000000 0.000000 0.000000 0.000000 0.000000 0.000000 0.031147 0.139149 20.200310 -0.000000 0.000000 0.000000 -3.782034 -7.873430 3.757645 0.000000 0.000000 0.000000 0.031147 0.139149 20.200310 -0.000000 0.000000 0.000000 -0.000000 0.000000 0.000000 0.000000 0.000000 0.000000
-46.395020 68.077787 367.609113 -0.100925 -0.156579 -19.957088 0.041422 0.181623 19.956885 -0.000000 0.000000 0.000000 -0.000000 0.000000 0.000000 0.000000 0.000000 0.000000 -0.431158 -0.923471 0.184162 0.434180 0.922054 -0.191131 -1.506405 7.621240 1.978750 1.902468 -10.141581 -1.650120 0.000000 0.000000 0.000000 0.000000 0.000000 0.000000 -0.000000 0.000000 0.000000 -0.000000 0.000000 0.000000 3.126521 -3.655156 0.487182 0.984267 10.104174 -2.932602 0.000000 0.000000 0.000000 0.000000 0.000000 0.000000 0.041422 0.181623 19.956885 -0.000000 0.000000 0.000000 -5.283305 -11.363791 5.222421 0.000000 0.000000 0.000000 0.041422 0.181623 19.956885 -0.000000 0.000000 0.000000 -0.000000 0.000000 0.000000 0.000000 0.000000 0.000000
-46.395786 68.050504 367.655803 -0.114599 -0.177911 -19.827483 0.047460 0.206235 19.827220 -0.000000 0.000000 0.000000 -0.505099 0.869785 -0.116539 0.000000 0.000000 0.000000 -0.499470 -1.032631 0.206307 0.503266 1.030787 -0.215336 -1.313263 9.204334 2.582684 1.912375 -12.289129 -2.194402 0.000000 0.000000 0.000000 0.000000 0.000000 0.000000 -0.000000 0.000000 0.000000 -0.000000 0.000000 0.000000 3.909242 -4.202880 0.485420 1.187937 11.985595 -3.550092 0.000000 0.000000 0.000000 0.000000 0.000000 0.000000 0.047460 0.206235 19.827220 -0.000000 0.000000 0.000000 -6.388953 -14.074405 6.272159 0.000000 0.000000 0.000000 0.047460 0.206235 19.827220 -0.000000 0.000000 0.000000 -0.000000 0.000000 0.000000 0.000000 0.000000 0.000000
-46.398501 68.030512 367.690538 -0.118312 -0.183850 -19.811283 0.048999 0.213067 19.811002 -0.000000 0.000000 0.000000 -0.651374 0.994387 -0.138150 0.000000 0.000000 0.000000 -0.529465 -1.040533 0.209115 0.533347 1.038549 -0.218757 -0.817262 10.583040 3.202355 1.661240 -14.048451 -2.821011 0.000000 0.000000 0.000000 0.000000 0.000000 0.000000 -0.000000 0.000000 0.000000 0.627581 -0.510123 -0.167387 3.916267 -3.873632 0.513445 1.365711 13.196993 -3.960528 0.000000 0.000000 0.000000 0.000000 0.000000 0.000000 0.048999 0.213067 19.811002 -0.000000 0.000000 0.000000 -7.032081 -15.706074 6.841258 0.000000 0.000000 0.000000 0.048999 0.213067 19.811002 -0.000000 0.000000 0.000000 -0.000000 0.000000 0.000000 0.000000 0.000000 0.000000
